# xmcd
#
# Track frame offsets:
#	150
#	15440
#	30870
#	43192
#	63140
#	76765
#	94452
#	107620
#	119210
#	136565
#	154605
#	173382
#	195505
#	212440
#	227277
#	245232
#
# Disc length: 3561 seconds
#
# Revision: 1
# Processed by: cddbd v1.5.2PL0 Copyright (c) Steve Scherf et al.
# Submitted via: audiograbber 1.83.01
#
DISCID=b90de710
DTITLE=Paula Mengarelli - Hope, Love, Fear and Madness
DYEAR=1900
DGENRE=Country
TTITLE0=Feeling Good
TTITLE1=Just Biding My Time
TTITLE2=Thank The Stars Up ABove
TTITLE3=You Need To Be Here
TTITLE4=Pay The Price
TTITLE5=Grand Ballroom
TTITLE6=I Just Want You
TTITLE7=So I'll Go
TTITLE8=Just Be Mine
TTITLE9=Secret Love
TTITLE10=His Body Rules
TTITLE11=Truest Love
TTITLE12=Hope, Love, Fear and Madness
TTITLE13=Komoriuta - Cradle Song
TTITLE14=Amore Segreto (Italian Version)
TTITLE15=Vero Amore (Italian Version)
EXTD=
EXTT0=
EXTT1=
EXTT2=
EXTT3=
EXTT4=
EXTT5=
EXTT6=
EXTT7=
EXTT8=
EXTT9=
EXTT10=
EXTT11=
EXTT12=
EXTT13=
EXTT14=
EXTT15=
PLAYORDER=
